<?xml version="1.0" encoding="UTF-8" standalone="no"?>
<!DOCTYPE svg PUBLIC "-//W3C//DTD SVG 1.1//EN"
 "http://www.w3.org/Graphics/SVG/1.1/DTD/svg11.dtd">
<!-- Generated by graphviz version 2.28.0 (20121213.1111)
 -->
<!-- Title: G Pages: 1 -->
<svg width="113pt" height="96pt"
 viewBox="0.00 0.00 113.00 96.00" xmlns="http://www.w3.org/2000/svg" xmlns:xlink="http://www.w3.org/1999/xlink">
<g id="graph1" class="graph" transform="scale(1 1) rotate(0) translate(4 92)">
<title>G</title>
<polygon fill="white" stroke="white" points="-4,5 -4,-92 110,-92 110,5 -4,5"/>
<g id="graph2" class="cluster"><title>cluster_McGowanCorp</title>
<polyline fill="none" stroke="gray" points="20,-8 85,-8 "/>
<path fill="none" stroke="gray" d="M85,-8C91,-8 97,-14 97,-20"/>
<polyline fill="none" stroke="gray" points="97,-20 97,-68 "/>
<path fill="none" stroke="gray" d="M97,-68C97,-74 91,-80 85,-80"/>
<polyline fill="none" stroke="gray" points="85,-80 20,-80 "/>
<path fill="none" stroke="gray" d="M20,-80C14,-80 8,-74 8,-68"/>
<polyline fill="none" stroke="gray" points="8,-68 8,-20 "/>
<path fill="none" stroke="gray" d="M8,-20C8,-14 14,-8 20,-8"/>
<text text-anchor="middle" x="52.5" y="-67.2" font-family="Times,serif" font-size="11.00" fill="gray">McGowanCorp</text>
</g>
<!-- \\McGowanCorp\\Object -->
<g id="node2" class="node"><title>\\McGowanCorp\\Object</title>
<a xlink:href="Object.html" xlink:title="Object" target="_parent">
<polygon fill="none" stroke="black" points="81.5,-52 24.5,-52 24.5,-16 81.5,-16 81.5,-52"/>
<text text-anchor="middle" x="53" y="-31.2" font-family="Courier,monospace" font-size="11.00">Object</text>
</a>
</g>
</g>
</svg>
